<svg xmlns="http://www.w3.org/2000/svg" enable-background="new 0 0 512 512" viewBox="0 0 512 512" id="CreativeProcess"><path d="M474.8 218.8h-33.5c-2.8 0-5 2.2-5 5s2.2 5 5 5h33.5c2.8 0 5-2.2 5-5S477.6 218.8 474.8 218.8zM70.7 218.8H37.2c-2.8 0-5 2.2-5 5s2.2 5 5 5h33.5c2.8 0 5-2.2 5-5S73.5 218.8 70.7 218.8zM407.2 65.5l-23.7 23.7c-2 2-2 5.1 0 7.1 1 1 2.3 1.5 3.5 1.5 1.3 0 2.6-.5 3.5-1.5l23.7-23.7c2-2 2-5.1 0-7.1S409.1 63.6 407.2 65.5zM256 43.5c2.8 0 5-2.2 5-5L261 5c0-2.8-2.2-5-5-5-2.8 0-5 2.2-5 5l0 33.5C251 41.2 253.3 43.5 256 43.5zM125 97.8c1.3 0 2.6-.5 3.5-1.5 2-2 2-5.1 0-7.1l-23.7-23.7c-2-2-5.1-2-7.1 0-2 2-2 5.1 0 7.1l23.7 23.7C122.4 97.3 123.7 97.8 125 97.8zM462.8 138.1c-1.1-2.6-4-3.8-6.5-2.7l-30.9 12.8c-2.6 1.1-3.8 4-2.7 6.5.8 1.9 2.7 3.1 4.6 3.1.6 0 1.3-.1 1.9-.4l30.9-12.8C462.6 143.6 463.8 140.7 462.8 138.1zM325 57.2c.6.3 1.3.4 1.9.4 2 0 3.8-1.2 4.6-3.1l12.8-30.9c1.1-2.6-.2-5.5-2.7-6.5-2.6-1.1-5.5.2-6.5 2.7l-12.8 30.9C321.2 53.2 322.5 56.1 325 57.2zM180.5 54.5c.8 1.9 2.7 3.1 4.6 3.1.6 0 1.3-.1 1.9-.4 2.6-1.1 3.8-4 2.7-6.5l-12.8-30.9c-1.1-2.6-4-3.8-6.5-2.7-2.6 1.1-3.8 4-2.7 6.5L180.5 54.5zM86.7 148.2l-30.9-12.8c-2.6-1.1-5.5.2-6.5 2.7-1.1 2.6.2 5.5 2.7 6.5l30.9 12.8c.6.3 1.3.4 1.9.4 2 0 3.8-1.2 4.6-3.1C90.5 152.2 89.3 149.3 86.7 148.2zM273.3 71.3c-93.7-10.2-170.6 63.3-170.6 152.4 0 36.5 13 71.8 36.5 99.4 22.2 26 33.9 56.2 33.9 87.5v20.9H162c-2.8 0-5 2.2-5 5s2.2 5 5 5h11.1v1.9c0 13.3 10.8 24.1 24.1 24.1h9.5c2.5 24.9 23.7 44.5 49.4 44.5 25.7 0 46.9-19.5 49.4-44.5h9.5c13.3 0 24.1-10.8 24.1-24.1v-1.9H350c2.8 0 5-2.2 5-5s-2.2-5-5-5h-11.1v-20.9c0-32.1 11.1-62 31.2-84.4 0 0 0 0 0 0 30-33.4 43.8-78.3 37.9-123.1C398.9 134.2 342.6 79 273.3 71.3zM256 502c-20.2 0-36.8-15.1-39.3-34.5h78.6C292.8 486.9 276.2 502 256 502zM328.9 443.4c0 7.8-6.3 14.1-14.1 14.1-36.8 0-82.1 0-117.7 0-7.8 0-14.1-6.3-14.1-14.1v-27.8c16.4 0 123.4 0 145.9 0V443.4zM274 182.9h-36c2.3-4.1 10.7-19.4 11.4-20.6 1.3-2.4 3.8-3.9 6.6-3.9 0 0 0 0 0 0 2.8 0 5.3 1.5 6.6 3.9L274 182.9zM232.5 192.9h47.1l17.9 32.3h-82.9L232.5 192.9zM301 235.2v170.4h-40V235.2H301zM211 235.2h40v170.4h-40V235.2zM362.7 319.5c-20.7 23-32.6 53.4-33.7 86.1h-18V230.2c0-.7-.2-1.7-.6-2.4l-38.9-70.3c-3.1-5.7-8.9-9-15.4-9 0 0 0 0 0 0-6.5 0-12.2 3.4-15.3 9l-39 70.3c-.4.8-.6 1.7-.6 2.4v175.4H183c-1.2-31.5-14-62.9-36.2-89-22-25.8-34.1-58.8-34.1-93 0-82.6 71.3-152.1 159.5-142.4 64.5 7.1 117.5 58.9 125.9 123.1C403.6 246.3 390.7 288.3 362.7 319.5z" fill="#0588b0" class="color000000 svgShape"></path></svg>