<svg xmlns="http://www.w3.org/2000/svg" viewBox="0 0 20 20" id="OnTime"><path d="M12.62012,3.36084a5.25605,5.25605,0,0,0-5.25,5.25,5.14231,5.14231,0,0,0,.03741.6084H3.127a.5.5,0,0,0,0,1H5.7937a3.70965,3.70965,0,0,0-.79486,1.06982H3.85938a.5.5,0,0,0,0,1h.80493a3.70157,3.70157,0,0,0-.05878.58155H2.62012a.5.5,0,0,0,0,1H4.73566a3.65944,3.65944,0,0,0,.32708.8164H3.85938a.5.5,0,0,0,0,1h1.9923a3.68,3.68,0,0,0,6.0495-1.87317,4.992,4.992,0,0,0,.71894.05677,5.25489,5.25489,0,1,0,0-10.50977ZM8.30957,15.63916a2.71,2.71,0,1,1,2.71-2.71A2.71321,2.71321,0,0,1,8.30957,15.63916Zm4.31055-2.76855a4.02111,4.02111,0,0,1-.61176-.05213A3.70208,3.70208,0,0,0,8.42255,9.23065a4.12815,4.12815,0,0,1-.05243-.61981,4.25488,4.25488,0,1,1,4.25,4.25977ZM9.88086,11.728a.49982.49982,0,0,1,0,.707l-1.69531,1.6958a.49928.49928,0,0,1-.35352.14648l-.02832-.001a.49884.49884,0,0,1-.36328-.18848l-.74121-.93555a.49979.49979,0,1,1,.7832-.62109l.39258.49561L9.17383,11.728A.4998.4998,0,0,1,9.88086,11.728Zm4.3125-2.19239a.49973.49973,0,1,1-.72266.69043l-1.209-1.26513a.4989.4989,0,0,1-.13867-.34522V6.07324a.5.5,0,1,1,1,0V8.415Z" data-name="On Time" fill="#0588b0" class="color000000 svgShape"></path></svg>