<svg xmlns="http://www.w3.org/2000/svg" enable-background="new 0 0 64 64" viewBox="0 0 64 64" id="PremiumService"><path fill="#c7c7c7" d="M61.2,41.4L61.2,41.4c-1-1.3-2.8-1.5-4.1-0.5L44.7,50c0.2-1.4-0.8-2.6-2.2-2.8c0,0-9.3-1.2-12.3-2.1
		c-3.1-0.8-8.6-4.2-11.8-4.5c-3.6-0.4-14.4,0-14.4,0v13.9c0,0,8.8,0.6,12.1,1.5c5.5,1.6,16.4,7.9,22.1,6.9
		c7-1.2,22.6-17.2,22.6-17.2C62,44.7,62.3,42.7,61.2,41.4z" class="colorc7d9f9 svgShape"></path><path fill="#64dfcb" d="M10.2,60.6H4.9c-1.5,0-2.7-1.2-2.7-2.7V37.4c0-1.5,1.2-2.7,2.7-2.7h5.3c1.5,0,2.7,1.2,2.7,2.7v20.5
		C12.9,59.4,11.7,60.6,10.2,60.6z" class="colore3ecff svgShape"></path><path fill="none" stroke="#0588b0" stroke-linecap="round" stroke-linejoin="round" stroke-miterlimit="10" stroke-width="1.5" d="
		M30.7,50.9l11.2,1.3c1.4,0.2,2.6-0.8,2.8-2.2l0,0c0.2-1.4-0.8-2.6-2.2-2.8c0,0-9.3-1.2-12.3-2.1c-3.1-0.8-8.6-4.2-11.8-4.5
		c-0.6-0.1-1.5-0.1-2.5-0.2" class="colorStroke2a3c65 svgStroke"></path><path fill="none" stroke="#0588b0" stroke-linecap="round" stroke-linejoin="round" stroke-miterlimit="10" stroke-width="1.5" d="M47.6 47.9l9.4-7c1.3-1 3.1-.7 4.1.5l0 0c1 1.3.8 3.2-.5 4.2 0 0-15.6 16-22.6 17.2-5.7 1-16.5-5.3-22.1-6.9M10.2 60.6H4.9c-1.5 0-2.7-1.2-2.7-2.7V37.4c0-1.5 1.2-2.7 2.7-2.7h5.3c1.5 0 2.7 1.2 2.7 2.7v20.5C12.9 59.4 11.7 60.6 10.2 60.6z" class="colorStroke2a3c65 svgStroke"></path><path fill="#a5a5a5" stroke="#0588b0" stroke-miterlimit="10" stroke-width="1.5" d="M52.4 25.4l1.5-13.9c.2-1.5-1.5-2.4-2.7-1.4l-7.5 6.2c-.8.6-2 .4-2.5-.5L37.9 10c-.6-1-2.2-1-2.9.1l-3.3 5.8c-.5.9-1.7 1.1-2.5.5l-7.5-6.2c-1.1-.9-2.8 0-2.7 1.4l1.5 13.9c.1.8.8 1.5 1.6 1.5h28.5C51.6 26.9 52.3 26.3 52.4 25.4zM21.1 33v1.8c0 .9.7 1.6 1.6 1.6H50c.9 0 1.6-.7 1.6-1.6V33c0-.9-.7-1.6-1.6-1.6H22.8C21.9 31.3 21.1 32.1 21.1 33z" class="colorfecb4d svgShape colorStroke2a3c65 svgStroke"></path><circle cx="55" cy="3.1" r="2.1" fill="#a5a5a5" stroke="#0588b0" stroke-miterlimit="10" stroke-width="1.5" class="colorfecb4d svgShape colorStroke2a3c65 svgStroke"></circle><circle cx="36.5" cy="3.1" r="2.1" fill="#a5a5a5" stroke="#0588b0" stroke-miterlimit="10" stroke-width="1.5" class="colorfecb4d svgShape colorStroke2a3c65 svgStroke"></circle><circle cx="17.9" cy="3.1" r="2.1" fill="#a5a5a5" stroke="#0588b0" stroke-miterlimit="10" stroke-width="1.5" class="colorfecb4d svgShape colorStroke2a3c65 svgStroke"></circle></svg>